<svg width="9000" height="1628" viewBox="0 0 9000 1628" fill="none" xmlns="http://www.w3.org/2000/svg">
<rect x="239" y="1378" width="11" height="11" fill="#808080"/>
<rect x="156" y="1498" width="10" height="61" transform="rotate(90 156 1498)" fill="#808080"/>
<rect x="130" y="1534" width="10" height="61" transform="rotate(-180 130 1534)" fill="#808080"/>
<rect x="589" y="1378" width="11" height="11" fill="#808080"/>
<rect x="506" y="1498" width="10" height="61" transform="rotate(90 506 1498)" fill="#808080"/>
<rect x="470" y="1473" width="11" height="11" fill="#808080"/>
<rect x="470" y="1523" width="11" height="11" fill="#808080"/>
<rect x="939" y="1378" width="11" height="11" fill="#808080"/>
<rect x="856" y="1486" width="10" height="61" transform="rotate(90 856 1486)" fill="#808080"/>
<rect x="856" y="1512" width="10" height="61" transform="rotate(90 856 1512)" fill="#808080"/>
<rect x="1289" y="1378" width="11" height="11" fill="#808080"/>
<path d="M1145 1487V1487C1154.08 1480.94 1165.92 1480.94 1175 1487V1487V1496V1496C1165.92 1489.94 1154.08 1489.94 1145 1496V1496V1487Z" fill="#808080"/>
<path d="M1205 1496V1496C1195.92 1502.06 1184.08 1502.06 1175 1496V1496V1487V1487C1184.08 1493.06 1195.92 1493.06 1205 1487V1487V1496Z" fill="#808080"/>
<path d="M1145 1511V1511C1154.08 1504.94 1165.92 1504.94 1175 1511V1511V1520V1520C1165.92 1513.94 1154.08 1513.94 1145 1520V1520V1511Z" fill="#808080"/>
<path d="M1205 1520V1520C1195.92 1526.06 1184.08 1526.06 1175 1520V1520V1511V1511C1184.08 1517.06 1195.92 1517.06 1205 1511V1511V1520Z" fill="#808080"/>
<rect x="1639" y="1378" width="11" height="11" fill="#808080"/>
<rect x="1489" y="1534" width="10" height="61" transform="rotate(-180 1489 1534)" fill="#808080"/>
<rect x="1489" y="1523" width="11" height="11" fill="#808080"/>
<rect x="1489" y="1473" width="11" height="11" fill="#808080"/>
<rect width="10" height="61" transform="matrix(1 -8.74228e-08 -8.74228e-08 -1 1560 1534)" fill="#808080"/>
<rect width="11" height="11" transform="matrix(-1 0 0 1 1560 1523)" fill="#808080"/>
<rect width="11" height="11" transform="matrix(-1 0 0 1 1560 1473)" fill="#808080"/>
<rect x="1989" y="1378" width="11" height="11" fill="#808080"/>
<rect x="1900.25" y="1482" width="5.75472" height="29.9245" fill="#808080"/>
<rect x="1872.62" y="1493.51" width="5.75472" height="5.75472" fill="#808080"/>
<rect x="1866.87" y="1493.51" width="14.9623" height="5.75472" fill="#808080"/>
<rect x="1866.87" y="1506.17" width="5.75472" height="5.75472" fill="#808080"/>
<rect x="1861.11" y="1493.51" width="5.75472" height="18.4151" fill="#808080"/>
<rect x="1872.62" y="1506.17" width="27.6226" height="5.75472" fill="#808080"/>
<rect x="1845" y="1482" width="5.75472" height="35.6792" fill="#808080"/>
<rect x="1845" y="1517.68" width="61" height="5.75472" fill="#808080"/>
<rect x="1848.45" y="1482" width="54.0943" height="5.75472" fill="#808080"/>
<rect x="2339" y="1378" width="11" height="11" fill="#808080"/>
<rect x="2220" y="1523" width="11" height="11" fill="#808080"/>
<rect x="2220" y="1502" width="11" height="11" fill="#808080"/>
<rect x="2245" y="1473" width="11" height="33" fill="#808080"/>
<rect x="2248" y="1473" width="11" height="43" transform="rotate(90 2248 1473)" fill="#808080"/>
<rect x="2256" y="1495" width="11" height="36" transform="rotate(90 2256 1495)" fill="#808080"/>
<rect x="2206" y="1497" width="11" height="24" transform="rotate(-180 2206 1497)" fill="#808080"/>
<rect x="2689" y="1378" width="11" height="11" fill="#808080"/>
<path d="M2570.96 1464.06H2580.04V1473.15H2570.96V1464.06Z" fill="#808080"/>
<path d="M2570.96 1473.15H2580.04V1541.94H2570.96V1473.15Z" fill="#808080"/>
<path d="M2545 1473.15H2554.09V1506.89H2545V1473.15Z" fill="#808080"/>
<path d="M2596.92 1497.81H2606V1534.15H2596.92V1497.81Z" fill="#808080"/>
<path d="M2596.92 1473.15H2606V1487.43H2596.92V1473.15Z" fill="#808080"/>
<path d="M2545 1518.57H2554.09V1534.15H2545V1518.57Z" fill="#808080"/>
<path d="M2606 1497.81L2606 1506.89L2554.09 1506.89L2554.09 1497.81L2606 1497.81Z" fill="#808080"/>
<path d="M2606 1473.15L2606 1480.94L2554.09 1480.94L2554.09 1473.15L2606 1473.15Z" fill="#808080"/>
<path d="M2606 1525.06L2606 1534.15L2545 1534.15L2545 1525.06L2606 1525.06Z" fill="#808080"/>
<rect x="3039" y="1378" width="11" height="11" fill="#808080"/>
<path d="M2895 1486.56H2956V1495.03H2895V1486.56Z" fill="#808080"/>
<path d="M2895 1511.97H2956V1520.44H2895V1511.97Z" fill="#808080"/>
<path d="M2917.88 1473L2908.56 1534L2900.08 1534L2909.4 1473L2917.88 1473Z" fill="#808080"/>
<path d="M2951.76 1473L2942.44 1534L2933.97 1534L2943.29 1473L2951.76 1473Z" fill="#808080"/>
<rect x="3389" y="1378" width="11" height="11" fill="#808080"/>
<path d="M3261.25 1481.59H3269.84L3295.62 1534H3287.03L3261.25 1481.59Z" fill="#808080"/>
<path d="M3261.25 1473H3285.31V1481.59H3261.25V1473Z" fill="#808080"/>
<path d="M3254.38 1527.83H3264.26L3293.9 1490.18H3284.02L3254.38 1527.83Z" fill="#808080"/>
<path d="M3254.38 1534H3289.61V1527.83H3254.38V1534Z" fill="#808080"/>
<rect x="3739" y="1378" width="11" height="11" fill="#808080"/>
<path d="M3600.64 1473H3609Lnan nanL3609 1473C3601.48 1492.62 3601.48 1514.38 3609 1534Lnan nanL3609 1534H3600.64Lnan nanL3600.64 1534C3593.12 1514.38 3593.12 1492.62 3600.64 1473Lnan nanL3600.64 1473Z" fill="#808080"/>
<path d="M3650.36 1473H3642Lnan nanL3642 1473C3649.52 1492.62 3649.52 1514.38 3642 1534Lnan nanL3642 1534H3650.36Lnan nanL3650.36 1534C3657.88 1514.38 3657.88 1492.62 3650.36 1473Lnan nanL3650.36 1473Z" fill="#808080"/>
<rect x="4089" y="1378" width="11" height="11" fill="#808080"/>
<path d="M3957.71 1473H3966.18V1481.47H3957.71V1473Z" fill="#808080"/>
<path d="M3957.71 1525.53H3966.18V1534H3957.71V1525.53Z" fill="#808080"/>
<path d="M3949.24 1534H3957.71V1505.77L3953.47 1503.5H3945L3949.24 1506.04V1534Z" fill="#808080"/>
<path d="M3949.24 1473H3957.71V1501.23L3953.47 1503.5H3945L3949.24 1500.96V1473Z" fill="#808080"/>
<path d="M4007.47 1473H3999V1481.47H4007.47V1473Z" fill="#808080"/>
<path d="M4007.47 1525.53H3999V1534H4007.47V1525.53Z" fill="#808080"/>
<path d="M4015.94 1534H4007.47V1505.77L4011.71 1503.5H4020.18L4015.94 1506.04V1534Z" fill="#808080"/>
<path d="M4015.94 1473H4007.47V1501.23L4011.71 1503.5H4020.18L4015.94 1500.96V1473Z" fill="#808080"/>
<rect x="4439" y="1378" width="11" height="11" fill="#808080"/>
<path d="M4346.68 1473H4356L4304.32 1534H4295L4346.68 1473Z" fill="#808080"/>
<path d="M4338.88 1532.57H4331.74L4331.74 1506.89L4338.88 1506.89L4338.88 1532.57Z" fill="#808080"/>
<path d="M4331.74 1514.02L4331.74 1506.89L4356 1506.89V1514.02L4331.74 1514.02Z" fill="#808080"/>
<path d="M4331.74 1534L4331.74 1526.87L4356 1526.87V1534L4331.74 1534Z" fill="#808080"/>
<path d="M4356 1532.57H4348.86L4348.86 1506.89L4356 1506.89V1532.57Z" fill="#808080"/>
<path d="M4302.13 1498.68L4295 1498.68L4295 1473L4302.13 1473L4302.13 1498.68Z" fill="#808080"/>
<path d="M4295 1480.13L4295 1473L4319.26 1473L4319.26 1480.13L4295 1480.13Z" fill="#808080"/>
<path d="M4295 1500.11L4295 1492.98L4319.26 1492.98L4319.26 1500.11L4295 1500.11Z" fill="#808080"/>
<path d="M4319.26 1498.68L4312.12 1498.68L4312.12 1473L4319.26 1473L4319.26 1498.68Z" fill="#808080"/>
<rect x="4789" y="1378" width="11" height="11" fill="#808080"/>
<path d="M4657 1494H4662V1512H4657V1494Z" fill="#808080"/>
<path d="M4694 1494L4694 1499L4662 1499L4662 1494L4694 1494Z" fill="#808080"/>
<path d="M4694 1506L4694 1512L4662 1512L4662 1506L4694 1506Z" fill="#808080"/>
<path d="M4700 1482H4706V1519H4700V1482Z" fill="#808080"/>
<path d="M4645 1482H4651V1518H4645V1482Z" fill="#808080"/>
<path d="M4645 1518H4706V1523H4645V1518Z" fill="#808080"/>
<path d="M4648 1482H4703V1488H4648V1482Z" fill="#808080"/>
<rect x="5139" y="1378" width="11" height="11" fill="#808080"/>
<path d="M5013.14 1473L5007 1473L5019 1489.57H5025.14L5013.14 1473Z" fill="#808080"/>
<path d="M5001.14 1489.57L4995 1489.57L5007 1473L5013.14 1473L5001.14 1489.57Z" fill="#808080"/>
<rect x="5489" y="1378" width="11" height="11" fill="#808080"/>
<path d="M5345 1500.27L5345 1492.17L5358.33 1482.72L5358.33 1490.82L5345 1500.27Z" fill="#808080"/>
<path d="M5345 1473L5345 1481.1L5358.33 1490.55L5358.33 1482.45L5345 1473Z" fill="#808080"/>
<path d="M5375 1500.27L5375 1492.17L5361.67 1482.72L5361.67 1490.82L5375 1500.27Z" fill="#808080"/>
<path d="M5375 1473L5375 1481.1L5361.67 1490.55L5361.67 1482.45L5375 1473Z" fill="#808080"/>
<rect x="5839" y="1378" width="11" height="11" fill="#808080"/>
<path fill-rule="evenodd" clip-rule="evenodd" d="M5726.35 1499.52C5716.86 1493.49 5704.49 1493.49 5695 1499.52V1507.95C5704.49 1501.92 5716.86 1501.92 5726.35 1507.95V1507.91C5735.84 1514.7 5746.51 1514.7 5756 1507.91V1499.52C5746.51 1506.3 5735.84 1506.3 5726.35 1499.52V1499.52Z" fill="#808080"/>
<rect x="6189" y="1378" width="11" height="11" fill="#808080"/>
<path d="M6070.26 1473H6078.74V1481.47H6070.26V1473Z" fill="#808080"/>
<path d="M6070.26 1525.53H6078.74V1534H6070.26V1525.53Z" fill="#808080"/>
<rect x="6539" y="1378" width="11" height="11" fill="#808080"/>
<path fill-rule="evenodd" clip-rule="evenodd" d="M6450.25 1503C6450.25 1494.13 6438.87 1490.32 6433.44 1497.38L6429.12 1503L6433.44 1508.62C6438.87 1515.68 6450.25 1511.87 6450.25 1503ZM6425.5 1507.7L6428.86 1512.07C6437.63 1523.47 6456 1517.33 6456 1503C6456 1488.67 6437.63 1482.53 6428.86 1493.93L6425.5 1498.3L6422.14 1493.93C6413.37 1482.53 6395 1488.67 6395 1503C6395 1517.33 6413.37 1523.47 6422.14 1512.07L6425.5 1507.7ZM6421.88 1503L6417.56 1497.38C6412.13 1490.32 6400.75 1494.13 6400.75 1503C6400.75 1511.87 6412.13 1515.68 6417.56 1508.62L6421.88 1503Z" fill="#808080"/>
<rect x="6829" y="1378" width="11" height="11" fill="#808080"/>
<path d="M6669 1473H6674L6676 1481H6671L6669 1473Z" fill="#808080"/>
<path d="M6676 1473H6681L6683 1481H6678L6676 1473Z" fill="#808080"/>
<path d="M6760 1473H6755L6753 1481H6758L6760 1473Z" fill="#808080"/>
<path d="M6753 1473H6748L6746 1481H6751L6753 1473Z" fill="#808080"/>
<rect x="7119" y="1378" width="11" height="11" fill="#808080"/>
<path d="M6959 1473H6964L6966 1481H6961L6959 1473Z" fill="#808080"/>
<path d="M7050 1473H7045L7043 1481H7048L7050 1473Z" fill="#808080"/>
<rect x="4789" y="928" width="11" height="11" fill="#808080"/>
<rect x="4720" y="1048" width="10" height="91" transform="rotate(90 4720 1048)" fill="#808080"/>
<rect x="4439" y="928" width="11" height="11" fill="#808080"/>
<rect x="4356" y="1048" width="10" height="61" transform="rotate(90 4356 1048)" fill="#808080"/>
<rect x="4089" y="928" width="11" height="11" fill="#808080"/>
<path d="M3995 1023H4006L3956 1084H3945L3995 1023Z" fill="#808080"/>
<rect x="3739" y="928" width="11" height="11" fill="#808080"/>
<rect x="3659" y="1023" width="11" height="16" fill="#808080"/>
<rect x="3389" y="928" width="11" height="11" fill="#808080"/>
<rect x="3229" y="1023" width="11" height="16" fill="#808080"/>
<rect x="3039" y="928" width="11" height="11" fill="#808080"/>
<rect x="2929" y="1023" width="11" height="16" fill="#808080"/>
<rect x="2945" y="1023" width="11" height="16" fill="#808080"/>
<rect x="2689" y="928" width="11" height="11" fill="#808080"/>
<rect x="2529" y="1023" width="11" height="16" fill="#808080"/>
<rect x="2545" y="1023" width="11" height="16" fill="#808080"/>
<rect x="2339" y="928" width="11" height="11" fill="#808080"/>
<rect x="2195" y="1073" width="11" height="11" fill="#808080"/>
<rect x="2217" y="1073" width="11" height="11" fill="#808080"/>
<rect x="2239" y="1073" width="11" height="11" fill="#808080"/>
<rect x="1989" y="928" width="11" height="11" fill="#808080"/>
<rect x="1870" y="1023" width="11" height="11" fill="#808080"/>
<path d="M1872.5 1067.5H1883.5L1878 1084H1867L1872.5 1067.5Z" fill="#808080"/>
<rect x="1639" y="928" width="11" height="11" fill="#808080"/>
<rect x="1520" y="1073" width="11" height="11" fill="#808080"/>
<rect x="1520" y="1023" width="11" height="11" fill="#808080"/>
<rect x="1289" y="928" width="11" height="11" fill="#808080"/>
<rect x="1170" y="1073" width="11" height="11" fill="#808080"/>
<rect x="1170" y="1023" width="11" height="39" fill="#808080"/>
<rect x="939" y="928" width="11" height="11" fill="#808080"/>
<path d="M822.5 1067.5H833.5L828 1084H817L822.5 1067.5Z" fill="#808080"/>
<rect x="589" y="928" width="11" height="11" fill="#808080"/>
<rect x="469" y="1073" width="11" height="11" fill="#808080"/>
<rect x="239" y="928" width="11" height="11" fill="#808080"/>
<path d="M126 1084L124 1084L124 1023L126 1023L126 1084Z" fill="#808080"/>
<rect x="4789" width="11" height="11" fill="#808080"/>
<rect x="4720.1" y="156" width="9.1" height="61" transform="rotate(-180 4720.1 156)" fill="#808080"/>
<path d="M4711 145L4711 156L4638.1 106L4638.1 95L4711 145Z" fill="#808080"/>
<rect width="9.1" height="61" transform="matrix(1 -1.01345e-07 -7.70754e-08 -1 4629 156)" fill="#808080"/>
<rect x="4439" width="11" height="11" fill="#808080"/>
<path d="M4324.5 128L4324.5 141L4360.9 108L4360.9 95L4324.5 128Z" fill="#808080"/>
<rect x="4370" y="156" width="9.1" height="61" transform="rotate(-180 4370 156)" fill="#808080"/>
<path d="M4324.5 128L4324.5 141L4288.1 108L4288.1 95L4324.5 128Z" fill="#808080"/>
<rect width="9.1" height="61" transform="matrix(1 -1.01345e-07 -7.70754e-08 -1 4279 156)" fill="#808080"/>
<rect x="4089" width="11" height="11" fill="#808080"/>
<rect x="3929" y="95" width="8" height="61" fill="#808080"/>
<rect x="4020" y="148" width="8" height="87" transform="rotate(90 4020 148)" fill="#808080"/>
<rect x="3739" width="11" height="11" fill="#808080"/>
<rect x="3579" y="95" width="8" height="61" fill="#808080"/>
<path d="M3618 124.324L3618 115.5L3668.7 146.479L3668.7 155.302L3618 124.324Z" fill="#808080"/>
<path d="M3587 128.176L3587 137L3669 103.824L3669 95L3587 128.176Z" fill="#808080"/>
<rect x="3389" width="11" height="11" fill="#808080"/>
<rect x="3309" y="95" width="9" height="61" fill="#808080"/>
<rect x="3309" y="147" width="9" height="80" transform="rotate(90 3309 147)" fill="#808080"/>
<rect x="3238" y="155" width="9" height="25" transform="rotate(-180 3238 155)" fill="#808080"/>
<rect x="3039" width="11" height="11" fill="#808080"/>
<rect x="2920" y="95" width="9" height="61" fill="#808080"/>
<rect x="2689" width="11" height="11" fill="#808080"/>
<rect x="2529" y="95" width="9" height="61" fill="#808080"/>
<rect x="2611" y="95" width="9" height="61" fill="#808080"/>
<path d="M2611 121L2611 130L2538 130L2538 121L2611 121Z" fill="#808080"/>
<rect x="2339" width="11" height="11" fill="#808080"/>
<rect x="2179" y="95" width="9" height="61" fill="#808080"/>
<rect x="2261" y="130" width="9" height="26" fill="#808080"/>
<path d="M2270 121L2270 130L2225 130L2225 121L2270 121Z" fill="#808080"/>
<rect x="2270" y="95" width="9" height="82" transform="rotate(90 2270 95)" fill="#808080"/>
<rect x="2263" y="147" width="9" height="75" transform="rotate(90 2263 147)" fill="#808080"/>
<rect x="1989" width="11" height="11" fill="#808080"/>
<rect x="1829" y="95" width="9" height="61" fill="#808080"/>
<path d="M1910 121L1910 130L1838 130L1838 121L1910 121Z" fill="#808080"/>
<rect x="1920" y="95" width="9" height="82" transform="rotate(90 1920 95)" fill="#808080"/>
<rect x="1639" width="11" height="11" fill="#808080"/>
<rect x="1479" y="95" width="9" height="61" fill="#808080"/>
<path d="M1560 121L1560 130L1488 130L1488 121L1560 121Z" fill="#808080"/>
<rect x="1570" y="95" width="9" height="82" transform="rotate(90 1570 95)" fill="#808080"/>
<rect x="1570" y="147" width="9" height="82" transform="rotate(90 1570 147)" fill="#808080"/>
<rect x="1289" width="11" height="11" fill="#808080"/>
<rect x="1129" y="95" width="10" height="61" fill="#808080"/>
<path d="M1206.5 95L1206 104L1139 104L1139 95L1206.5 95Z" fill="#808080"/>
<path d="M1205 147L1206.5 156L1139 156L1139 147L1205 147Z" fill="#808080"/>
<path d="M1204 99C1204 99 1215 105.573 1215 125.5C1215 145.427 1204 152 1204 152" stroke="#808080" stroke-width="9"/>
<rect x="939" width="11" height="11" fill="#808080"/>
<rect x="779" y="95" width="10" height="61" fill="#808080"/>
<rect x="870" y="95" width="9" height="81" transform="rotate(90 870 95)" fill="#808080"/>
<rect x="870" y="147" width="9" height="81" transform="rotate(90 870 147)" fill="#808080"/>
<rect x="589" width="11" height="11" fill="#808080"/>
<rect x="429" y="95" width="9" height="61" fill="#808080"/>
<path d="M511 119L511 128L438 128L438 119L511 119Z" fill="#808080"/>
<path d="M510 98C510 98 515 103 515 112C515 121 508 126 508 126" stroke="#808080" stroke-width="9"/>
<path d="M510 122.5C510 122.5 515 129 515 138C515 147 509.5 153 509.5 153" stroke="#808080" stroke-width="9"/>
<rect x="513" y="95" width="9" height="75" transform="rotate(90 513 95)" fill="#808080"/>
<rect x="513" y="147" width="9" height="75" transform="rotate(90 513 147)" fill="#808080"/>
<rect x="239" width="11" height="11" fill="#808080"/>
<path d="M120.176 95H129L87.8235 156H79L120.176 95Z" fill="#808080"/>
<path d="M128.824 95H120L161.176 156H170L128.824 95Z" fill="#808080"/>
<path d="M96.0001 142.395L93.0001 135.087L134.064 135.001L139.009 142.309L96.0001 142.395Z" fill="#808080"/>
<path d="M82.358 154.102H82.822V154.173H82.358V154.102ZM82.808 154.102H82.821L82.838 154.098L82.887 154.124C82.884 154.128 82.88 154.133 82.875 154.137C82.438 154.629 82.413 154.7 82.413 154.747C82.413 154.785 82.45 154.8 82.507 154.8H82.768C82.821 154.8 82.832 154.768 82.838 154.599C82.857 154.61 82.886 154.619 82.906 154.623C82.895 154.834 82.864 154.872 82.764 154.872H82.512C82.392 154.872 82.338 154.827 82.338 154.754C82.338 154.689 82.359 154.613 82.808 154.102ZM82.248 154L82.319 154.022C82.254 154.191 82.151 154.361 82.043 154.473C82.035 154.456 82.013 154.416 82 154.399C82.098 154.302 82.192 154.152 82.248 154ZM82.151 154.243L82.223 154.172L82.224 154.173V154.915H82.151V154.243Z" fill="#808080"/>
<rect x="8989" width="11" height="11" fill="#808080"/>
<rect x="8829" y="156" width="9.00001" height="91" transform="rotate(-90 8829 156)" fill="#808080"/>
<path d="M8846 147L8829 147L8903 104L8920 104L8846 147Z" fill="#808080"/>
<rect width="9" height="91" transform="matrix(5.76335e-08 1 1 -3.3364e-08 8829 95)" fill="#808080"/>
<rect x="8639" width="11" height="11" fill="#808080"/>
<path fill-rule="evenodd" clip-rule="evenodd" d="M8479 94.2661L8529.05 126.235V155.897H8520.51V130.954L8479 104.906V94.2661Z" fill="#808080"/>
<path fill-rule="evenodd" clip-rule="evenodd" d="M8570 94.2661L8519.95 126.235V155.897H8528.49V130.954L8570 104.906V94.2661Z" fill="#808080"/>
<rect x="8289" width="11" height="11" fill="#808080"/>
<path d="M8140.82 156L8129 156L8208 95L8219.82 95L8140.82 156Z" fill="#808080"/>
<path d="M8208 156L8219.82 156L8140.82 95L8129 95L8208 156Z" fill="#808080"/>
<rect x="7939" width="11" height="11" fill="#808080"/>
<path d="M7809.65 155.396L7801.15 155.396L7820.1 95L7828.59 95L7809.65 155.396Z" fill="#808080"/>
<path d="M7799.39 155.396L7807.89 155.396L7787.5 94.9999L7779 94.9999L7799.39 155.396Z" fill="#808080"/>
<path d="M7839.35 155.396L7847.85 155.396L7828.9 95L7820.41 95L7839.35 155.396Z" fill="#808080"/>
<path d="M7849.61 155.396L7841.11 155.396L7861.5 94.9999L7870 94.9999L7849.61 155.396Z" fill="#808080"/>
<rect x="7589" width="11" height="11" fill="#808080"/>
<path d="M7478.82 155.396L7470 155.396L7511.18 94.396L7520 94.396L7478.82 155.396Z" fill="#808080"/>
<path d="M7470.18 155.396L7479 155.396L7437.82 94.396L7429 94.396L7470.18 155.396Z" fill="#808080"/>
<rect x="7239" width="11" height="11" fill="#808080"/>
<rect x="7170.1" y="156" width="9.1" height="61" transform="rotate(-180 7170.1 156)" fill="#808080"/>
<rect x="7088" y="156" width="8.99999" height="73" transform="rotate(-90 7088 156)" fill="#808080"/>
<rect width="9.1" height="61" transform="matrix(1 -1.01345e-07 -7.70754e-08 -1 7079 156)" fill="#808080"/>
<rect x="6889" width="11" height="11" fill="#808080"/>
<rect x="6770" y="95" width="9" height="61" fill="#808080"/>
<rect x="6820" y="95" width="9" height="91" transform="rotate(90 6820 95)" fill="#808080"/>
<rect x="6539" width="11" height="11" fill="#808080"/>
<path d="M6379 94.5942H6387.58V128.934H6379V94.5942Z" fill="#808080"/>
<path d="M6461.42 120.349H6470V156.406H6461.42V120.349Z" fill="#808080"/>
<path d="M6461.42 94.5942H6470V110.047H6461.42V94.5942Z" fill="#808080"/>
<path d="M6379 140.953H6387.58V156.405H6379V140.953Z" fill="#808080"/>
<path d="M6463.13 120.349L6463.13 128.934L6387.58 128.934L6387.58 120.349L6463.13 120.349Z" fill="#808080"/>
<path d="M6470 94.5942L6470 103.179L6387.58 103.179L6387.58 94.5942L6470 94.5942Z" fill="#808080"/>
<path d="M6470 147.821L6470 156.406L6379 156.406L6379 147.821L6470 147.821Z" fill="#808080"/>
<rect x="6189" width="11" height="11" fill="#808080"/>
<path d="M6029 94.604H6037.41V156.396H6029V94.604Z" fill="#808080"/>
<path d="M6085.64 130.649H6097.66L6120 156.396H6107.98L6085.64 130.649Z" fill="#808080"/>
<path d="M6111.39 94.604H6119.97V132.366H6111.39V94.604Z" fill="#808080"/>
<path d="M6112.4 123.784L6112.4 132.366L6062.77 132.366L6049.6 123.784L6112.4 123.784Z" fill="#808080"/>
<path d="M6116.12 94.604L6109.53 103.186L6035.08 103.186L6035.08 94.604L6116.12 94.604Z" fill="#808080"/>
<rect x="5839" width="11" height="11" fill="#808080"/>
<path d="M5770 139L5761 133.5L5761 95L5770 95L5770 139Z" fill="#808080"/>
<path d="M5688 156L5688 147L5744 147L5759 156L5688 156Z" fill="#808080"/>
<rect x="5688" y="104" width="8.99999" height="73" transform="rotate(-90 5688 104)" fill="#808080"/>
<rect width="9.1" height="61" transform="matrix(1 -1.01345e-07 -7.70754e-08 -1 5679 156)" fill="#808080"/>
<path d="M5769.9 145L5769.9 156L5736.5 136L5736.5 125L5769.9 145Z" fill="#808080"/>
<rect x="5686" y="95" width="9" height="9" fill="#0075FF"/>
<rect x="5489" width="11" height="11" fill="#808080"/>
<rect x="5329" y="95" width="10" height="61" fill="#808080"/>
<rect x="5410" y="95" width="10" height="35" fill="#808080"/>
<path d="M5412 121L5412 130L5339 130L5339 121L5412 121Z" fill="#808080"/>
<path d="M5410 95L5410 104L5338 104L5338 95L5410 95Z" fill="#808080"/>
<rect x="5139" width="11" height="11" fill="#808080"/>
<rect x="5070.1" y="156" width="9.1" height="61" transform="rotate(-180 5070.1 156)" fill="#808080"/>
<rect x="4988" y="156" width="8.99999" height="73" transform="rotate(-90 4988 156)" fill="#808080"/>
<rect x="4988" y="104" width="8.99999" height="73" transform="rotate(-90 4988 104)" fill="#808080"/>
<rect width="9.1" height="61" transform="matrix(1 -1.01345e-07 -7.70754e-08 -1 4979 156)" fill="#808080"/>
<rect x="3389" y="464" width="11" height="11" fill="#808080"/>
<path d="M3320 559L3320 568L3229 568L3229 559L3320 559Z" fill="#808080"/>
<path d="M3238 614L3229 614L3229 565L3238 565L3238 614Z" fill="#808080"/>
<path d="M3320 614L3311 614L3311 559L3320 559L3320 614Z" fill="#808080"/>
<path d="M3229 620L3229 611L3320 611L3320 620L3229 620Z" fill="#808080"/>
<path d="M3297.5 568H3311.5L3253 611H3239L3297.5 568Z" fill="#808080"/>
<rect x="3039" y="464" width="11" height="11" fill="#808080"/>
<path d="M2970 559L2970 568L2879 568L2879 559L2970 559Z" fill="#808080"/>
<path d="M2965 585L2965 594L2886 594L2886 585L2965 585Z" fill="#808080"/>
<path d="M2888 594L2879 594L2879 565L2888 565L2888 594Z" fill="#808080"/>
<path d="M2970 614L2961 614L2961 559L2970 559L2970 614Z" fill="#808080"/>
<path d="M2879 620L2879 611L2970 611L2970 620L2879 620Z" fill="#808080"/>
<rect x="2689" y="464" width="11" height="11" fill="#808080"/>
<path d="M2620 559L2620 568L2529 568L2529 559L2620 559Z" fill="#808080"/>
<path d="M2615 585L2615 594L2536 594L2536 585L2615 585Z" fill="#808080"/>
<path d="M2538 620L2529 620L2529 565L2538 565L2538 620Z" fill="#808080"/>
<path d="M2620 614L2611 614L2611 559L2620 559L2620 614Z" fill="#808080"/>
<path d="M2529 620L2529 611L2620 611L2620 620L2529 620Z" fill="#808080"/>
<rect x="2339" y="464" width="11" height="11" fill="#808080"/>
<path d="M2270 559L2270 568L2179 568L2179 559L2270 559Z" fill="#808080"/>
<path d="M2270 620L2261 620L2261 559L2270 559L2270 620Z" fill="#808080"/>
<rect x="1989" y="464" width="11" height="11" fill="#808080"/>
<path d="M1920 559L1920 568L1829 568L1829 559L1920 559Z" fill="#808080"/>
<path d="M1915 585L1915 594L1836 594L1836 585L1915 585Z" fill="#808080"/>
<path d="M1838 620L1829 620L1829 565L1838 565L1838 620Z" fill="#808080"/>
<path d="M1920 614L1911 614L1911 585L1920 585L1920 614Z" fill="#808080"/>
<path d="M1829 620L1829 611L1920 611L1920 620L1829 620Z" fill="#808080"/>
<rect x="1639" y="464" width="11" height="11" fill="#808080"/>
<path d="M1570 559L1570 568L1479 568L1479 559L1570 559Z" fill="#808080"/>
<path d="M1565 585L1565 594L1488 594L1488 585L1565 585Z" fill="#808080"/>
<path d="M1488 594L1479 594L1479 565L1488 565L1488 594Z" fill="#808080"/>
<path d="M1570 614L1561 614L1561 585L1570 585L1570 614Z" fill="#808080"/>
<path d="M1479 620L1479 611L1570 611L1570 620L1479 620Z" fill="#808080"/>
<rect x="1289" y="464" width="11" height="11" fill="#808080"/>
<path d="M1213 590L1213 599L1129 599L1129 590L1213 590Z" fill="#808080"/>
<path d="M1220 594L1211 594L1211 559L1220 559L1220 594Z" fill="#808080"/>
<path d="M1220 620L1211 620L1211 585L1220 585L1220 620Z" fill="#808080"/>
<path d="M1138 594L1129 594L1129 559L1138 559L1138 594Z" fill="#808080"/>
<rect x="939" y="464" width="11" height="11" fill="#808080"/>
<path d="M870 559L870 568L779 568L779 559L870 559Z" fill="#808080"/>
<path d="M870 585L870 594L779 594L779 585L870 585Z" fill="#808080"/>
<path d="M870 620L861 620L861 559L870 559L870 620Z" fill="#808080"/>
<path d="M779 620L779 611L870 611L870 620L779 620Z" fill="#808080"/>
<rect x="589" y="464" width="11" height="11" fill="#808080"/>
<path d="M520 559L520 568L429 568L429 559L520 559Z" fill="#808080"/>
<path d="M515 585L515 594L436 594L436 585L515 585Z" fill="#808080"/>
<path d="M520 594L511 594L511 565L520 565L520 594Z" fill="#808080"/>
<path d="M438 614L429 614L429 585L438 585L438 614Z" fill="#808080"/>
<path d="M429 620L429 611L520 611L520 620L429 620Z" fill="#808080"/>
<rect x="239" y="464" width="11" height="11" fill="#808080"/>
<path d="M129 620L120 620L120 559L129 559L129 620Z" fill="#808080"/>
<path d="M120 572L115 572L115 559L120 559L120 572Z" fill="#808080"/>
</svg>